<?xml version="1.0" encoding="utf-8"?>
<!-- Generator: Adobe Illustrator 27.5.0, SVG Export Plug-In . SVG Version: 6.00 Build 0)  -->
<svg version="1.1" xmlns="http://www.w3.org/2000/svg" xmlns:xlink="http://www.w3.org/1999/xlink" x="0px" y="0px"
	 viewBox="0 0 1200 1200" style="enable-background:new 0 0 1200 1200;" xml:space="preserve">
<g id="Background">
	<rect style="fill:#F6F6F6;" width="1200" height="1200"/>
</g>
<g id="Graphic_Elements">
	<g>
		<g>
			<g>
				<path style="fill:#222221;" d="M528.52,753.7c3.648,0.458,7.319,0.833,11.007,1.151
					c56.778-25.211,104.721-66.748,138.198-120.692c32.448-52.29,48.443-111.584,47.015-171.703l-61.927-61.927
					C687.976,531.267,638.608,669.658,528.52,753.7z"/>
				<path style="fill:#222221;" d="M506.417,750.836c0.564,0.107,1.125,0.221,1.689,0.326
					c118.041-84.127,168.666-230.961,135.256-366.016l-88.194-88.194C626.006,441.013,611.697,618.713,506.417,750.836z"/>
				<path style="fill:#222221;" d="M805.574,535.156c-14.918,67.304-50.788,127.862-103.769,173.937
					c-15.48,13.462-32,25.268-49.319,35.427c86.569-25.211,156.65-90.152,188.893-173.559L805.574,535.156z"/>
				<path style="fill:#222221;" d="M791.542,525.191l-50.923-50.923c-0.796,58.219-17.366,115.327-48.858,166.077
					c-30.769,49.581-73.333,89.035-123.596,115.591c0.078,0,0.156,0.003,0.234,0.003h0c11.568,0,22.981-0.697,34.203-2.04
					C697.901,714.968,770.771,630.127,791.542,525.191z"/>
				<path style="fill:#222221;" d="M513.914,259.764l-60.869-60.868C345.134,240.612,268.068,345.64,268.068,467.808v0.001
					c0,134.694,93.677,248.554,219.093,279.694C604.027,605.691,610.295,407.159,513.914,259.764z"/>
			</g>
			<path style="fill:#222221;" d="M931.932,515.83c0-158.472-129.659-288.131-288.131-288.131h-0.001
				c-36.303,0-71.086,6.822-103.153,19.218l372.066,372.065C925.11,586.917,931.932,552.134,931.932,515.83L931.932,515.83z"/>
		</g>
	</g>
</g>
<g id="Text">
	<text transform="matrix(1 0 0 1 326.7746 922.2274)" style="font-family:'Asap-Regular'; font-size:90px; letter-spacing:23;">COMPANY</text>
</g>
</svg>
